#!OML:ASF E:\emotionWalksFemale\Project 1\Capture day 1\Session 1\Female1.ASF
:FULLY-SPECIFIED
:DEGREES
207
root 7.31919 15.0424 42.0822 175.609 -0.241165 182.83
lowerback 1.6743 1.90892 0.429743
upperback -3.67353 2.22023 -3.5142
thorax -4.57853 0.931352 -4.00059
lowerneck -7.98063 14.8476 9.44277
upperneck 33.389 16.6268 1.31003
head 13.2844 7.60774 1.06252
rclavicle 8.74653e-015 -4.77083e-015
rhumerus -55.9514 15.6021 -103.09
rradius 39.9513
rwrist 1.64152
rhand -7.97727 -56.4271
rfingers 7.12502
rthumb -162.069 -625.62
lclavicle 8.74653e-015 -4.77083e-015
lhumerus -53.4166 18.5841 61.7249
lradius 37.5611
lwrist -14.6296
lhand -8.40675 -32.7603
lfingers 7.12502
lthumb 17.5174 -3.52955
rfemur -2.76571 9.92634 23.1991
rtibia 27.8245
rfoot -25.2509 -26.7635
rtoes 8.90996
lfemur -3.089 -20.4814 -26.842
ltibia 30.5882
lfoot -31.4648 20.137
ltoes -14.741
208
root 7.31759 15.0397 42.077 175.556 -0.326675 182.77
lowerback 1.74729 1.85842 0.27082
upperback -3.67333 2.14845 -3.46345
thorax -4.63254 0.902208 -3.85722
lowerneck -8.42456 14.5454 8.87554
upperneck 33.7193 16.1391 1.62408
head 13.3947 7.33938 1.21987
rclavicle -5.96354e-015 -4.29375e-014
rhumerus -56.0175 15.6381 -102.997
rradius 39.9452
rwrist 1.77697
rhand -7.92858 -56.4892
rfingers 7.12502
rthumb -162.022 -625.678
lclavicle -5.96354e-015 -4.29375e-014
lhumerus -53.2281 18.0981 62.2787
lradius 37.6273
lwrist -14.5794
lhand -8.88208 -34.0946
lfingers 7.12502
lthumb 17.0599 -4.82364
rfemur -2.64229 10.0262 23.1679
rtibia 27.8025
rfoot -25.2057 -26.6516
rtoes 10.0151
lfemur -3.01037 -20.4354 -26.9335
ltibia 30.5691
lfoot -31.3603 20.1572
ltoes -15.5257
209
root 7.31604 15.0382 42.0725 175.528 -0.39307 182.807
lowerback 1.88805 1.79966 0.273531
upperback -3.74309 2.06702 -3.42596
thorax -4.79241 0.859306 -3.82286
lowerneck -8.42163 14.1174 8.59845
upperneck 33.6417 15.6476 1.33177
head 13.3367 7.04634 1.06269
rclavicle -2.98177e-014 3.65764e-014
rhumerus -56.1121 15.6141 -102.988
rradius 39.8857
rwrist 1.84765
rhand -7.80731 -56.4814
rfingers 7.12502
rthumb -161.906 -625.66
lclavicle -2.98177e-014 3.65764e-014
lhumerus -53.1492 17.3703 62.9348
lradius 37.9608
lwrist -14.1301
lhand -9.2054 -34.7626
lfingers 7.12502
lthumb 16.7487 -5.46503
rfemur -2.56108 10.3612 23.2865
rtibia 27.8048
rfoot -25.3033 -27.0528
rtoes 10.4337
lfemur -2.97806 -20.3287 -26.8913
ltibia 30.5339
lfoot -31.145 20.2563
ltoes -16.5984
210
root 7.3113 15.0402 42.0663 175.61 -0.416695 182.783
lowerback 1.95098 1.79409 0.264815
upperback -3.87283 2.04307 -3.46709
thorax -4.9649 0.839067 -3.8658
lowerneck -8.49467 13.6682 8.25842
upperneck 33.6392 15.0468 1.2881
head 13.2909 6.72598 0.999356
rclavicle -1.15295e-014 6.99722e-014
rhumerus -56.2102 15.3842 -102.991
rradius 39.7946
rwrist 1.97736
rhand -7.75187 -56.6377
rfingers 7.12502
rthumb -161.852 -625.811
lclavicle -1.15295e-014 6.99722e-014
lhumerus -53.137 16.2267 63.7394
lradius 38.6049
lwrist -13.2425
lhand -9.15168 -35.1086
lfingers 7.12502
lthumb 16.8004 -5.81546
rfemur -2.59247 10.5652 23.2711
rtibia 27.786
rfoot -25.4055 -27.3056
rtoes 10.8542
lfemur -3.04337 -20.2424 -26.896
ltibia 30.508
lfoot -31.0421 20.2339
ltoes -16.9139
211
root 7.30579 15.0407 42.0566 175.706 -0.385916 182.715
lowerback 1.87137 1.8626 0.228554
upperback -3.93382 2.1157 -3.5802
thorax -4.9761 0.868283 -3.96634
lowerneck -8.78007 13.1919 7.75781
upperneck 33.6422 14.3016 1.69322
head 13.2293 6.38946 1.12319
rclavicle 1.90833e-014 -1.11319e-014
rhumerus -56.2128 15.007 -102.964
rradius 39.7405
rwrist 2.25501
rhand -7.63651 -56.7763
rfingers 7.12502
rthumb -161.741 -625.939
lclavicle 1.90833e-014 -1.11319e-014
lhumerus -53.0245 15.1815 64.2934
lradius 38.9129
lwrist -13.2304
lhand -9.83838 -36.2001
lfingers 7.12502
lthumb 16.1393 -6.85207
rfemur -2.62346 10.7212 23.1913
rtibia 27.7484
rfoot -25.4761 -27.3328
rtoes 11.5853
lfemur -3.08127 -20.3108 -26.9945
ltibia 30.4944
lfoot -31.0917 20.3208
ltoes -17.3986
212
root 7.30192 15.0409 42.0483 175.777 -0.336882 182.749
lowerback 1.77403 1.7248 0.12188
upperback -3.90686 1.94624 -3.3959
thorax -4.913 0.797192 -3.69955
lowerneck -8.87508 12.8831 7.05148
upperneck 33.3889 14.0384 1.65368
head 13.0571 6.19689 1.16369
rclavicle 6.36111e-015 -1.27222e-014
rhumerus -56.3439 15.7332 -103.105
rradius 39.8065
rwrist 1.91688
rhand -7.86245 -56.7333
rfingers 7.12502
rthumb -161.959 -625.917
lclavicle 6.36111e-015 -1.27222e-014
lhumerus -53.17 15.1079 64.746
lradius 39.3861
lwrist -13.2066
lhand -10.3045 -36.6321
lfingers 7.12502
lthumb 15.6904 -7.24822
rfemur -2.64667 10.938 23.2401
rtibia 27.7191
rfoot -25.5933 -27.4494
rtoes 11.7714
lfemur -3.11471 -20.4322 -26.986
ltibia 30.4776
lfoot -31.1829 20.4556
ltoes -17.8547
213
root 7.29884 15.0418 42.0424 175.796 -0.261084 182.751
lowerback 1.75124 1.72603 0.090825
upperback -3.8684 1.95145 -3.37794
thorax -4.86092 0.803497 -3.66166
lowerneck -8.62725 12.3461 7.00062
upperneck 32.7183 13.5503 0.960408
head 12.761 5.928 0.803479
rclavicle -4.09496e-014 1.03368e-013
rhumerus -56.3036 15.8097 -103.094
rradius 39.8091
rwrist 1.89425
rhand -7.8843 -56.8987
rfingers 7.12502
rthumb -161.98 -626.084
lclavicle -4.09496e-014 1.03368e-013
lhumerus -53.0769 14.5197 65.3366
lradius 39.7765
lwrist -13.2975
lhand -11.0899 -37.057
lfingers 7.12502
lthumb 14.9339 -7.61538
rfemur -2.62142 11.0864 23.2484
rtibia 27.6768
rfoot -25.6056 -27.5214
rtoes 11.6506
lfemur -3.10605 -20.4509 -27.0116
ltibia 30.4767
lfoot -31.1896 20.5848
ltoes -17.3733
214
root 7.29324 15.0432 42.0366 175.843 -0.193683 182.766
lowerback 1.67534 1.74077 0.147896
upperback -3.85052 1.97327 -3.40759
thorax -4.79469 0.812189 -3.72261
lowerneck -8.57294 11.8312 6.77624
upperneck 32.2792 12.9782 0.659352
head 12.5485 5.63671 0.625622
rclavicle 1.59028e-015 -1.74931e-014
rhumerus -56.238 15.5766 -102.962
rradius 39.762
rwrist 2.16573
rhand -7.72106 -57.0818
rfingers 7.12502
rthumb -161.823 -626.252
lclavicle 1.59028e-015 -1.74931e-014
lhumerus -52.9795 13.8247 65.886
lradius 40.2703
lwrist -13.0661
lhand -10.8571 -37.4625
lfingers 7.12502
lthumb 15.1581 -8.03766
rfemur -2.6241 11.093 23.225
rtibia 27.6142
rfoot -25.5059 -27.4841
rtoes 11.398
lfemur -3.12238 -20.4199 -27.0203
ltibia 30.5004
lfoot -31.1469 20.6967
ltoes -17.2068
215
root 7.28644 15.0445 42.0311 175.901 -0.170729 182.854
lowerback 1.63564 1.68735 0.264282
upperback -3.86209 1.90983 -3.37951
thorax -4.78529 0.777566 -3.75437
lowerneck -8.81255 11.3992 6.21559
upperneck 32.235 12.4036 0.837484
head 12.4922 5.33835 0.703405
rclavicle 2.62396e-014 -5.56597e-014
rhumerus -56.4246 15.8195 -103.362
rradius 39.9033
rwrist 1.09148
rhand -8.14614 -57.5845
rfingers 7.12502
rthumb -162.232 -626.793
lclavicle 2.62396e-014 -5.56597e-014
lhumerus -52.9773 13.3171 66.312
lradius 40.8831
lwrist -12.364
lhand -9.79217 -37.7502
lfingers 7.12502
lthumb 16.1838 -8.4058
rfemur -2.65255 11.0756 23.2705
rtibia 27.5775
rfoot -25.5321 -27.3759
rtoes 11.4722
lfemur -3.15399 -20.4272 -26.9503
ltibia 30.5116
lfoot -31.103 20.859
ltoes -17.6431
216
root 7.28173 15.0439 42.0241 175.877 -0.12387 182.858
lowerback 1.6898 1.63497 0.245976
upperback -3.83071 1.84303 -3.3577
thorax -4.78892 0.747049 -3.71877
lowerneck -9.10814 10.9819 5.66357
upperneck 32.1505 11.8802 0.960461
head 12.4426 5.0622 0.771913
rclavicle 1.27222e-014 -1.27222e-014
rhumerus -56.2685 15.831 -103.26
rradius 39.7388
rwrist 1.21262
rhand -4.92477 -58.6621
rfingers 7.12502
rthumb -159.134 -627.56
lclavicle 1.27222e-014 -1.27222e-014
lhumerus -52.9002 12.8227 66.8072
lradius 41.0412
lwrist -12.5242
lhand -10.7671 -38.2719
lfingers 7.12502
lthumb 15.2449 -8.85365
rfemur -2.59317 11.1472 23.2685
rtibia 27.5679
rfoot -25.6824 -27.3284
rtoes 11.107
lfemur -3.07635 -20.429 -27.0037
ltibia 30.5187
lfoot -31.0744 20.8932
ltoes -17.3676
